<svg xmlns="http://www.w3.org/2000/svg" xmlns:xlink="http://www.w3.org/1999/xlink" version="1.1" width="256" height="256" viewBox="0 0 256 256" xml:space="preserve">

<defs>
</defs>
<g style="stroke: none; stroke-width: 0; stroke-dasharray: none; stroke-linecap: butt; stroke-linejoin: miter; stroke-miterlimit: 10; fill: none; fill-rule: nonzero; opacity: 1;" transform="translate(1.4065934065934016 1.4065934065934016) scale(2.81 2.81)" >
	<path d="M 43.381 39.154 c -1.008 1.457 -1.682 3.815 -2.005 7.01 c -0.185 2.177 -0.018 3.83 0.493 4.909 c 0.473 0.999 1.179 1.465 2.221 1.465 c 0.687 0 1.313 -0.31 1.914 -0.948 c 0.629 -0.671 1.166 -1.652 1.594 -2.918 l 1.009 -11.504 c -0.357 -0.067 -0.724 -0.101 -1.097 -0.101 C 45.702 37.067 44.352 37.75 43.381 39.154 z" style="stroke: none; stroke-width: 1; stroke-dasharray: none; stroke-linecap: butt; stroke-linejoin: miter; stroke-miterlimit: 10; fill: rgb(0,0,0); fill-rule: nonzero; opacity: 1;" transform=" matrix(1 0 0 1 0 0) " stroke-linecap="round" />
	<path d="M 45 0 C 20.147 0 0 20.147 0 45 c 0 24.853 20.147 45 45 45 s 45 -20.147 45 -45 C 90 20.147 69.853 0 45 0 z M 67.683 43.14 c -0.179 4.659 -1.364 8.436 -3.523 11.226 c -2.195 2.833 -5.159 4.27 -8.811 4.27 c -1.518 0 -2.884 -0.335 -4.058 -0.997 c -0.971 -0.546 -1.773 -1.288 -2.391 -2.208 c -1.759 2.059 -4.064 3.101 -6.862 3.101 c -1.79 0 -3.381 -0.536 -4.726 -1.592 c -1.336 -1.048 -2.326 -2.549 -2.942 -4.461 c -0.606 -1.88 -0.795 -4.037 -0.561 -6.408 c 0.537 -4.475 2.001 -8.122 4.354 -10.852 c 2.385 -2.767 5.353 -4.17 8.821 -4.17 c 2.663 0 4.992 0.628 6.923 1.867 l 1.91 1.273 l -1.368 15.734 c -0.148 1.212 -0.003 2.065 0.429 2.553 c 0.334 0.378 0.858 0.562 1.602 0.562 c 1.302 0 2.384 -0.847 3.309 -2.589 c 0.968 -1.828 1.51 -4.212 1.612 -7.084 c 0.29 -5.707 -0.896 -10.156 -3.523 -13.232 c -2.616 -3.061 -6.52 -4.614 -11.604 -4.614 c -3.235 0 -6.148 0.835 -8.658 2.483 c -2.516 1.652 -4.537 4.028 -6.006 7.06 c -1.481 3.055 -2.327 6.588 -2.516 10.5 c -0.273 5.98 0.927 10.603 3.567 13.741 c 2.624 3.121 6.638 4.703 11.93 4.703 c 1.432 0 2.973 -0.169 4.581 -0.503 c 1.605 -0.333 2.926 -0.726 3.924 -1.166 l 0.555 -0.244 l 1.181 5.294 l -0.289 0.189 c -1.115 0.731 -2.623 1.324 -4.485 1.764 C 48.212 69.778 46.337 70 44.484 70 c -4.85 0 -9.016 -0.946 -12.381 -2.811 c -3.387 -1.877 -5.941 -4.695 -7.591 -8.373 c -1.637 -3.648 -2.378 -8.12 -2.2 -13.295 c 0.213 -4.896 1.36 -9.343 3.411 -13.222 c 2.059 -3.895 4.918 -6.952 8.497 -9.086 C 37.798 21.081 41.888 20 46.378 20 c 4.488 0 8.42 0.947 11.69 2.814 c 3.284 1.876 5.787 4.61 7.437 8.125 C 67.146 34.432 67.877 38.537 67.683 43.14 z" style="stroke: none; stroke-width: 1; stroke-dasharray: none; stroke-linecap: butt; stroke-linejoin: miter; stroke-miterlimit: 10; fill: rgb(0,0,0); fill-rule: nonzero; opacity: 1;" transform=" matrix(1 0 0 1 0 0) " stroke-linecap="round" />
</g>
</svg>